<svg width="24" height="24" viewBox="0 0 24 24" fill="none" xmlns="http://www.w3.org/2000/svg">
<!-- Left adrenal gland -->
<path d="M8 6C6.9 6 6 6.9 6 8L6 12C6 13.1 6.9 14 8 14L10 14C11.1 14 12 13.1 12 12L12 8C12 6.9 11.1 6 10 6Z" fill="currentColor"/>
<path d="M7 14C5.9 14 5 14.9 5 16L5 18C5 19.1 5.9 20 7 20L9 20C10.1 20 11 19.1 11 18L11 16C11 14.9 10.1 14 9 14Z" fill="currentColor"/>

<!-- Right adrenal gland -->
<path d="M12 6C12.9 6 13.9 6.9 13.9 8L13.9 12C13.9 13.1 12.9 14 12 14L10 14C8.9 14 7.9 13.1 7.9 12L7.9 8C7.9 6.9 8.9 6 10 6Z" fill="currentColor"/>
<path d="M13 14C14.1 14 15 14.9 15 16L15 18C15 19.1 14.1 20 13 20L11 20C9.9 20 9 19.1 9 18L9 16C9 14.9 9.9 14 11 14Z" fill="currentColor"/>
</svg>
