<svg width="24" height="24" viewBox="0 0 24 24" fill="none" xmlns="http://www.w3.org/2000/svg">
<path d="M7 8C7 6.34 8.34 5 10 5C11.66 5 13 6.34 13 8C13 9.66 11.66 11 10 11C8.34 11 7 9.66 7 8Z" fill="currentColor"/>
<path d="M11 8C11 6.34 12.34 5 14 5C15.66 5 17 6.34 17 8C17 9.66 15.66 11 14 11C12.34 11 11 9.66 11 8Z" fill="currentColor"/>
<path d="M10 11C8.34 11 7 12.34 7 14C7 15.66 8.34 17 10 17C11.66 17 13 15.66 13 14C13 12.34 11.66 11 10 11Z" fill="currentColor"/>
<path d="M14 11C12.34 11 11 12.34 11 14C11 15.66 12.34 17 14 17C15.66 17 17 15.66 17 14C17 12.34 15.66 11 14 11Z" fill="currentColor"/>
<path d="M9 17C7.34 17 6 18.34 6 20C6 21.66 7.34 23 9 23C10.66 23 12 21.66 12 20C12 18.34 10.66 17 9 17Z" fill="currentColor"/>
<path d="M15 17C13.34 17 12 18.34 12 20C12 21.66 13.34 23 15 23C16.66 23 18 21.66 18 20C18 18.34 16.66 17 15 17Z" fill="currentColor"/>
</svg>
