<svg width="44" height="44" viewBox="0 0 44 44" fill="none" xmlns="http://www.w3.org/2000/svg">
<rect x="0.25" y="0.25" width="43.5" height="43.5" rx="7.75" fill="#FFD2E2"/>
<rect x="0.25" y="0.25" width="43.5" height="43.5" rx="7.75" stroke="#C21B58" stroke-width="0.5"/>
<g clip-path="url(#clip0_192_131)">
<path d="M33.9466 20.9688L32.6341 17.6875C32.5227 17.4097 32.3304 17.1718 32.0821 17.0047C31.8339 16.8375 31.5412 16.7488 31.2419 16.75H28V16C28 15.8011 27.921 15.6103 27.7803 15.4697C27.6397 15.329 27.4489 15.25 27.25 15.25H13C12.6022 15.25 12.2206 15.408 11.9393 15.6893C11.658 15.9706 11.5 16.3522 11.5 16.75V27.25C11.5 27.6478 11.658 28.0294 11.9393 28.3107C12.2206 28.592 12.6022 28.75 13 28.75H14.5938C14.759 29.3953 15.1343 29.9673 15.6605 30.3757C16.1867 30.7842 16.8339 31.0059 17.5 31.0059C18.1661 31.0059 18.8133 30.7842 19.3395 30.3757C19.8657 29.9673 20.241 29.3953 20.4063 28.75H25.0938C25.259 29.3953 25.6343 29.9673 26.1605 30.3757C26.6867 30.7842 27.3339 31.0059 28 31.0059C28.6661 31.0059 29.3133 30.7842 29.8395 30.3757C30.3657 29.9673 30.741 29.3953 30.9063 28.75H32.5C32.8978 28.75 33.2794 28.592 33.5607 28.3107C33.842 28.0294 34 27.6478 34 27.25V21.25C34.0006 21.1537 33.9825 21.0581 33.9466 20.9688ZM17.5 29.5C17.2033 29.5 16.9133 29.412 16.6666 29.2472C16.42 29.0824 16.2277 28.8481 16.1142 28.574C16.0006 28.2999 15.9709 27.9983 16.0288 27.7074C16.0867 27.4164 16.2296 27.1491 16.4393 26.9393C16.6491 26.7296 16.9164 26.5867 17.2074 26.5288C17.4983 26.4709 17.7999 26.5006 18.074 26.6142C18.3481 26.7277 18.5824 26.92 18.7472 27.1666C18.912 27.4133 19 27.7033 19 28C19 28.3978 18.842 28.7794 18.5607 29.0607C18.2794 29.342 17.8978 29.5 17.5 29.5ZM22.75 22H21.25V23.5C21.25 23.6989 21.171 23.8897 21.0303 24.0303C20.8897 24.171 20.6989 24.25 20.5 24.25C20.3011 24.25 20.1103 24.171 19.9697 24.0303C19.829 23.8897 19.75 23.6989 19.75 23.5V22H18.25C18.0511 22 17.8603 21.921 17.7197 21.7803C17.579 21.6397 17.5 21.4489 17.5 21.25C17.5 21.0511 17.579 20.8603 17.7197 20.7197C17.8603 20.579 18.0511 20.5 18.25 20.5H19.75V19C19.75 18.8011 19.829 18.6103 19.9697 18.4697C20.1103 18.329 20.3011 18.25 20.5 18.25C20.6989 18.25 20.8897 18.329 21.0303 18.4697C21.171 18.6103 21.25 18.8011 21.25 19V20.5H22.75C22.9489 20.5 23.1397 20.579 23.2803 20.7197C23.421 20.8603 23.5 21.0511 23.5 21.25C23.5 21.4489 23.421 21.6397 23.2803 21.7803C23.1397 21.921 22.9489 22 22.75 22ZM28 29.5C27.7033 29.5 27.4133 29.412 27.1666 29.2472C26.92 29.0824 26.7277 28.8481 26.6142 28.574C26.5007 28.2999 26.4709 27.9983 26.5288 27.7074C26.5867 27.4164 26.7296 27.1491 26.9393 26.9393C27.1491 26.7296 27.4164 26.5867 27.7074 26.5288C27.9983 26.4709 28.2999 26.5006 28.574 26.6142C28.8481 26.7277 29.0824 26.92 29.2472 27.1666C29.412 27.4133 29.5 27.7033 29.5 28C29.5 28.3978 29.342 28.7794 29.0607 29.0607C28.7794 29.342 28.3978 29.5 28 29.5ZM28 20.5V18.25H31.2419L32.1419 20.5H28Z" fill="#C21B58"/>
</g>
<defs>
<clipPath id="clip0_192_131">
<rect width="24" height="24" fill="white" transform="translate(10 10)"/>
</clipPath>
</defs>
</svg>
