<svg width="55" height="55" viewBox="0 0 55 55" fill="none" xmlns="http://www.w3.org/2000/svg">
<g clip-path="url(#clip0_396_47)">
<path d="M51.2986 28.9634L49.7018 22.0781C49.566 21.4952 49.2582 20.9665 48.8183 20.5605C48.3785 20.1546 47.8268 19.8902 47.2348 19.8016L40.8264 18.8159L41.0545 17.3334C41.1149 16.9402 41.0167 16.5391 40.7815 16.2183C40.5462 15.8975 40.1931 15.6833 39.7999 15.6228L11.6312 11.2901C10.8448 11.1691 10.0426 11.3655 9.40095 11.836C8.75935 12.3066 8.33095 13.0127 8.20999 13.7991L5.01747 34.555C4.89651 35.3414 5.0929 36.1437 5.56344 36.7853C6.03398 37.4269 6.74012 37.8553 7.52652 37.9762L10.677 38.4608C10.8074 39.7867 11.3753 41.0314 12.2913 41.9988C13.2073 42.9662 14.4192 43.6012 15.736 43.8038C17.0528 44.0063 18.3995 43.7648 19.5639 43.1174C20.7283 42.47 21.644 41.4535 22.1668 40.2281L31.4329 41.6533C31.5633 42.9792 32.1313 44.2239 33.0472 45.1913C33.9632 46.1587 35.1751 46.7938 36.4919 46.9963C37.8087 47.1988 39.1554 46.9574 40.3198 46.3099C41.4842 45.6625 42.3999 44.646 42.9228 43.4206L46.0732 43.9052C46.8596 44.0262 47.6619 43.8298 48.3035 43.3592C48.9451 42.8887 49.3735 42.1825 49.4944 41.3961L51.3187 29.5356C51.3492 29.3454 51.3424 29.151 51.2986 28.9634ZM16.1939 40.827C15.6074 40.7368 15.0609 40.4747 14.6234 40.0739C14.1859 39.6731 13.8771 39.1516 13.736 38.5752C13.5949 37.9989 13.6279 37.3937 13.8308 36.8361C14.0336 36.2785 14.3973 35.7936 14.8758 35.4427C15.3542 35.0918 15.926 34.8907 16.5188 34.8648C17.1116 34.8388 17.6987 34.9892 18.206 35.297C18.7133 35.6048 19.1179 36.056 19.3687 36.5938C19.6196 37.1315 19.7053 37.7315 19.6151 38.318C19.4941 39.1044 19.0657 39.8105 18.4241 40.281C17.7825 40.7516 16.9803 40.948 16.1939 40.827ZM28.8522 27.5976L25.8871 27.1416L25.431 30.1067C25.3705 30.4999 25.1563 30.853 24.8355 31.0882C24.5147 31.3235 24.1136 31.4217 23.7204 31.3612C23.3272 31.3007 22.9741 31.0865 22.7389 30.7657C22.5036 30.4449 22.4054 30.0438 22.4659 29.6506L22.9219 26.6855L19.9568 26.2294C19.5636 26.1689 19.2105 25.9547 18.9753 25.6339C18.74 25.3131 18.6418 24.912 18.7023 24.5188C18.7628 24.1256 18.977 23.7725 19.2978 23.5373C19.6186 23.302 20.0197 23.2038 20.4129 23.2643L23.378 23.7203L23.8341 20.7552C23.8946 20.362 24.1088 20.0089 24.4296 19.7737C24.7504 19.5384 25.1515 19.4402 25.5447 19.5007C25.9379 19.5612 26.291 19.7754 26.5262 20.0962C26.7615 20.417 26.8597 20.8181 26.7992 21.2113L26.3431 24.1764L29.3083 24.6325C29.7015 24.693 30.0545 24.9072 30.2898 25.228C30.5251 25.5488 30.6233 25.9499 30.5628 26.3431C30.5023 26.7363 30.2881 27.0894 29.9673 27.3246C29.6465 27.5599 29.2454 27.6581 28.8522 27.5976ZM36.9498 44.0195C36.3633 43.9293 35.8168 43.6673 35.3793 43.2664C34.9418 42.8656 34.633 42.3441 34.4919 41.7678C34.3508 41.1914 34.3838 40.5862 34.5867 40.0286C34.7896 39.471 35.1532 38.9862 35.6317 38.6353C36.1102 38.2844 36.6819 38.0832 37.2747 38.0573C37.8675 38.0313 38.4546 38.1818 38.9619 38.4895C39.4692 38.7973 39.8738 39.2486 40.1247 39.7863C40.3755 40.324 40.4612 40.924 40.371 41.5105C40.25 42.2969 39.8216 43.003 39.18 43.4736C38.5384 43.9441 37.7362 44.1405 36.9498 44.0195ZM39.6862 26.2288L40.3703 21.7811L46.7787 22.7668L47.8737 27.4881L39.6862 26.2288Z" fill="#C88DED"/>
</g>
<defs>
<clipPath id="clip0_396_47">
<rect width="48" height="48" fill="white" transform="translate(7.2972) rotate(8.7443)"/>
</clipPath>
</defs>
</svg>
