<svg width="44" height="44" viewBox="0 0 44 44" fill="none" xmlns="http://www.w3.org/2000/svg">
<rect x="0.25" y="0.25" width="43.5" height="43.5" rx="7.75" fill="white" fill-opacity="0.3"/>
<rect x="0.25" y="0.25" width="43.5" height="43.5" rx="7.75" stroke="#C9E265" stroke-width="0.5"/>
<path d="M22 12.25C20.0716 12.25 18.1866 12.8218 16.5832 13.8932C14.9798 14.9645 13.7301 16.4873 12.9922 18.2688C12.2542 20.0504 12.0611 22.0108 12.4373 23.9021C12.8136 25.7934 13.7422 27.5307 15.1057 28.8943C16.4693 30.2579 18.2066 31.1865 20.0979 31.5627C21.9892 31.9389 23.9496 31.7458 25.7312 31.0078C27.5127 30.2699 29.0355 29.0202 30.1068 27.4168C31.1782 25.8134 31.75 23.9284 31.75 22C31.7473 19.415 30.7192 16.9366 28.8913 15.1087C27.0634 13.2808 24.585 12.2527 22 12.25ZM27.9381 20.8591L23.2131 22.3947L26.1334 26.4138C26.1946 26.4932 26.2392 26.5841 26.2646 26.681C26.29 26.778 26.2957 26.8791 26.2814 26.9783C26.2671 27.0775 26.233 27.1728 26.1812 27.2587C26.1295 27.3445 26.061 27.4191 25.9799 27.478C25.8988 27.5369 25.8067 27.5789 25.7091 27.6017C25.6114 27.6244 25.5102 27.6273 25.4115 27.6102C25.3127 27.5932 25.2183 27.5565 25.134 27.5024C25.0496 27.4482 24.977 27.3777 24.9203 27.295L22 23.2759L19.0797 27.295C18.9606 27.4498 18.7858 27.552 18.5924 27.5799C18.3991 27.6078 18.2026 27.5592 18.0445 27.4444C17.8865 27.3296 17.7795 27.1577 17.7463 26.9652C17.713 26.7727 17.7562 26.5749 17.8666 26.4138L20.7869 22.3947L16.0619 20.8591C15.8727 20.7976 15.7156 20.6636 15.6252 20.4864C15.5349 20.3091 15.5186 20.1033 15.58 19.9141C15.6414 19.7248 15.7755 19.5678 15.9527 19.4774C16.1299 19.387 16.3358 19.3708 16.525 19.4322L21.25 20.9688V16C21.25 15.8011 21.329 15.6103 21.4697 15.4697C21.6103 15.329 21.8011 15.25 22 15.25C22.1989 15.25 22.3897 15.329 22.5303 15.4697C22.671 15.6103 22.75 15.8011 22.75 16V20.9688L27.475 19.4331C27.5687 19.4027 27.6675 19.3911 27.7657 19.3988C27.8638 19.4066 27.9596 19.4336 28.0473 19.4783C28.1351 19.5231 28.2131 19.5847 28.2771 19.6596C28.341 19.7345 28.3896 19.8213 28.42 19.915C28.4504 20.0087 28.4621 20.1075 28.4543 20.2056C28.4466 20.3038 28.4195 20.3995 28.3748 20.4873C28.33 20.5751 28.2684 20.6531 28.1935 20.7171C28.1186 20.781 28.0318 20.8296 27.9381 20.86V20.8591Z" fill="#C9E265"/>
</svg>
