<svg width="61" height="61" viewBox="0 0 61 61" fill="none" xmlns="http://www.w3.org/2000/svg">
<g clip-path="url(#clip0_396_41)">
<path d="M45.3268 25.9106L34.9755 12.748C33.6596 10.9956 31.8284 9.69886 29.7386 9.03947C27.6487 8.38009 25.4049 8.3911 23.3216 9.07097C21.2383 9.75085 19.42 11.0655 18.1213 12.8307C16.8227 14.5959 16.109 16.7232 16.0801 18.9144L15.8558 35.5181C15.7628 38.1706 16.3111 40.8063 17.4541 43.2016C18.5971 45.597 20.301 47.6813 22.4213 49.2776C24.5417 50.874 27.0158 51.9353 29.6338 52.3715C32.2518 52.8077 34.9363 52.606 37.4597 51.7833C39.9831 50.9607 42.2708 49.5415 44.1287 47.6462C45.9866 45.7509 47.3599 43.4353 48.132 40.896C48.9041 38.3568 49.0523 35.6687 48.5639 33.0599C48.0756 30.4512 46.9651 27.9987 45.3268 25.9106ZM34.7512 43.2133C33.3461 43.6886 31.8315 43.7366 30.3991 43.3512C28.9667 42.9658 27.6808 42.1642 26.7039 41.048C25.727 39.9317 25.1031 38.5508 24.911 37.0799C24.7189 35.6091 24.9673 34.1143 25.6248 32.7846C26.2822 31.4549 27.3192 30.35 28.6046 29.6097C29.8901 28.8693 31.3661 28.5268 32.8462 28.6253C34.3263 28.7239 35.7439 29.2592 36.9198 30.1634C38.0957 31.0676 38.977 32.3003 39.4523 33.7054C40.0898 35.5896 39.9526 37.6499 39.0709 39.433C38.1893 41.216 36.6354 42.5759 34.7512 43.2133Z" fill="#F7DC6F"/>
</g>
<defs>
<clipPath id="clip0_396_41">
<rect width="48" height="48" fill="white" transform="translate(0 15.3816) rotate(-18.6901)"/>
</clipPath>
</defs>
</svg>
