<svg width="59" height="59" viewBox="0 0 59 59" fill="none" xmlns="http://www.w3.org/2000/svg">
<g clip-path="url(#clip0_396_50)">
<path d="M45.5476 20.3815L44.0284 20.775C42.6363 16.9033 39.8478 13.6914 36.21 11.7692C32.5722 9.84703 28.3475 9.35333 24.3645 10.3849C20.3816 11.4165 16.9277 13.899 14.6804 17.3455C12.433 20.7919 11.5544 24.9536 12.2168 29.0143L10.6976 29.4078C10.3125 29.5076 9.98275 29.7562 9.78096 30.0991C9.57917 30.4419 9.52185 30.8509 9.62159 31.236C10.5224 34.6876 12.3497 37.8273 14.9058 40.3155C17.462 42.8037 20.6498 44.5457 24.1244 45.3531L24.2993 46.0284C24.4988 46.7986 24.9961 47.458 25.6818 47.8616C26.3675 48.2652 27.1855 48.3798 27.9557 48.1803L39.5724 45.1716C40.3426 44.9721 41.0021 44.4748 41.4056 43.7891C41.8092 43.1034 41.9239 42.2855 41.7244 41.5152L41.5495 40.84C44.1953 38.4473 46.1366 35.3769 47.1635 31.9607C48.1904 28.5444 48.2638 24.9125 47.3758 21.4575C47.2761 21.0724 47.0274 20.7427 46.6846 20.5409C46.3417 20.3391 45.9328 20.2818 45.5476 20.3815ZM34.132 14.0858C34.5352 14.2719 34.9285 14.4767 35.3118 14.7002C31.7985 17.0612 29.328 20.6832 28.4121 24.8158L23.0575 26.2027C23.3062 23.4236 24.4068 20.7891 26.2089 18.659C28.0111 16.5289 30.427 15.0072 33.1265 14.3017C33.4586 14.2157 33.795 14.146 34.132 14.0858ZM31.7746 23.9488C32.851 20.8516 35.0202 18.2535 37.8754 16.6414C39.3007 18.0128 40.4046 19.6828 41.1079 21.5315L31.7746 23.9488ZM25.1139 13.278C26.2793 12.977 27.4798 12.8334 28.6834 12.8513C26.1228 14.2388 23.9732 16.2768 22.4513 18.7599C20.9294 21.2429 20.0889 24.0833 20.0145 26.9947L15.1373 28.2579C14.6705 24.9716 15.4294 21.6284 17.2694 18.8657C19.1093 16.103 21.9016 14.1141 25.1139 13.278Z" fill="#E03FB5"/>
</g>
<defs>
<clipPath id="clip0_396_50">
<rect width="48" height="48" fill="white" transform="translate(0 12.035) rotate(-14.5207)"/>
</clipPath>
</defs>
</svg>
