<svg width="44" height="44" viewBox="0 0 44 44" fill="none" xmlns="http://www.w3.org/2000/svg">
<rect x="0.25" y="0.25" width="43.5" height="43.5" rx="7.75" fill="#FFEAE3"/>
<rect x="0.25" y="0.25" width="43.5" height="43.5" rx="7.75" stroke="#FF6932" stroke-width="0.5"/>
<path d="M31 19.7501H30.2153C30.0269 17.7016 29.0799 15.7973 27.56 14.4109C26.0402 13.0245 24.0572 12.2559 22 12.2559C19.9428 12.2559 17.9598 13.0245 16.44 14.4109C14.9201 15.7973 13.9731 17.7016 13.7847 19.7501H13C12.8011 19.7501 12.6103 19.8291 12.4697 19.9698C12.329 20.1104 12.25 20.3012 12.25 20.5001C12.2533 22.2837 12.7441 24.0325 13.6695 25.5573C14.5948 27.0821 15.9194 28.3249 17.5 29.1514V29.5001C17.5 29.8979 17.658 30.2795 17.9393 30.5608C18.2206 30.8421 18.6022 31.0001 19 31.0001H25C25.3978 31.0001 25.7794 30.8421 26.0607 30.5608C26.342 30.2795 26.5 29.8979 26.5 29.5001V29.1514C28.0806 28.3249 29.4052 27.0821 30.3305 25.5573C31.2559 24.0325 31.7467 22.2837 31.75 20.5001C31.75 20.3012 31.671 20.1104 31.5303 19.9698C31.3897 19.8291 31.1989 19.7501 31 19.7501ZM26.2637 15.2717C26.4356 15.4123 26.6003 15.5607 26.7578 15.717C24.7613 16.4193 23.1114 17.8627 22.15 19.7482H19.3844C19.8531 18.4343 20.7161 17.2971 21.8555 16.492C22.9948 15.6869 24.3549 15.2532 25.75 15.2501C25.9216 15.2501 26.0931 15.2586 26.2637 15.2717ZM23.8862 19.7501C24.7955 18.386 26.1712 17.4003 27.7553 16.9779C28.2733 17.8204 28.5982 18.7671 28.7069 19.7501H23.8862ZM22 13.7501C22.6018 13.7505 23.2009 13.8316 23.7812 13.9911C22.3679 14.3417 21.072 15.0586 20.024 16.0697C18.9761 17.0808 18.2132 18.3502 17.8122 19.7501H15.2931C15.4792 18.1009 16.2656 16.5779 17.5025 15.4713C18.7395 14.3648 20.3403 13.7521 22 13.7501Z" fill="#FF6932"/>
</svg>
