<svg width="24" height="24" viewBox="0 0 24 24" fill="none" xmlns="http://www.w3.org/2000/svg">
<path d="M19.875 7.125V6.75C19.874 5.93742 19.6331 5.14323 19.1824 4.46709C18.7317 3.79095 18.0913 3.26299 17.3417 2.94945C16.592 2.63591 15.7665 2.55076 14.9686 2.70469C14.1707 2.85862 13.4361 3.24477 12.8569 3.81469C12.8226 3.84922 12.7955 3.8902 12.7772 3.93525C12.7588 3.9803 12.7496 4.02854 12.75 4.07719V12.3947C12.7502 12.4623 12.7686 12.5286 12.8034 12.5866C12.8382 12.6446 12.888 12.6921 12.9476 12.7241C13.0071 12.756 13.0742 12.7713 13.1418 12.7683C13.2093 12.7653 13.2748 12.7441 13.3312 12.7069C14.0444 12.2496 14.8728 12.0045 15.72 12C15.9161 11.9964 16.1061 12.068 16.251 12.2002C16.396 12.3323 16.4847 12.515 16.4991 12.7106C16.5044 12.8124 16.489 12.9142 16.4537 13.0097C16.4184 13.1053 16.364 13.1927 16.2938 13.2666C16.2236 13.3405 16.1391 13.3993 16.0455 13.4394C15.9518 13.4795 15.851 13.5001 15.7491 13.5C14.9534 13.5 14.1903 13.8161 13.6277 14.3787C13.0651 14.9413 12.7491 15.7044 12.7491 16.5V19.6763C12.749 19.7323 12.7615 19.7877 12.7857 19.8384C12.8098 19.889 12.8451 19.9335 12.8887 19.9688C13.421 20.4092 14.0476 20.721 14.7199 20.8799C15.3922 21.0387 16.0921 21.0404 16.7652 20.8848C17.4382 20.7291 18.0663 20.4204 18.6007 19.9825C19.135 19.5446 19.5611 18.9894 19.8459 18.36C19.8746 18.2967 19.8851 18.2267 19.8763 18.1578C19.8675 18.0888 19.8398 18.0237 19.7961 17.9697C19.7524 17.9156 19.6946 17.8747 19.6291 17.8516C19.5636 17.8285 19.4929 17.824 19.425 17.8387C18.9576 17.9459 18.4795 18 18 18H17.2753C17.0818 18.0024 16.8946 17.9315 16.7511 17.8017C16.6077 17.6718 16.5187 17.4925 16.5019 17.2997C16.4951 17.1971 16.5094 17.0942 16.544 16.9974C16.5787 16.9006 16.6328 16.8119 16.7032 16.7369C16.7735 16.6619 16.8585 16.6022 16.9529 16.5615C17.0473 16.5207 17.1491 16.4998 17.2519 16.5H18.0019C18.7855 16.5012 19.5576 16.312 20.2519 15.9487C21.0741 15.5205 21.7571 14.8668 22.221 14.0641C22.6848 13.2614 22.9101 12.3432 22.8706 11.417C22.831 10.4908 22.5282 9.59508 21.9976 8.83489C21.467 8.0747 20.7307 7.48155 19.875 7.125ZM18.75 10.5H18.375C17.4799 10.5 16.6214 10.1444 15.9885 9.51149C15.3556 8.87855 15 8.02011 15 7.125V6.75C15 6.55109 15.079 6.36032 15.2197 6.21967C15.3603 6.07902 15.5511 6 15.75 6C15.9489 6 16.1397 6.07902 16.2803 6.21967C16.421 6.36032 16.5 6.55109 16.5 6.75V7.125C16.5 7.37123 16.5485 7.61505 16.6427 7.84253C16.737 8.07002 16.8751 8.27672 17.0492 8.45083C17.4008 8.80246 17.8777 9 18.375 9H18.75C18.9489 9 19.1397 9.07902 19.2803 9.21967C19.421 9.36032 19.5 9.55109 19.5 9.75C19.5 9.94891 19.421 10.1397 19.2803 10.2803C19.1397 10.421 18.9489 10.5 18.75 10.5ZM8.25 2.625C7.15636 2.62624 6.10787 3.06124 5.33455 3.83456C4.56123 4.60787 4.12624 5.65636 4.125 6.75V7.125C3.26937 7.48174 2.53319 8.07505 2.0028 8.83534C1.4724 9.59563 1.16978 10.4914 1.13042 11.4176C1.09106 12.3438 1.31659 13.262 1.78056 14.0645C2.24454 14.8671 2.92772 15.5207 3.75 15.9487C4.44428 16.312 5.21642 16.5012 6 16.5H6.72469C6.9185 16.4971 7.10621 16.5678 7.25005 16.6977C7.39389 16.8276 7.48319 17.0072 7.5 17.2003C7.50681 17.3029 7.49246 17.4058 7.45783 17.5026C7.4232 17.5994 7.36903 17.6881 7.2987 17.7631C7.22836 17.8381 7.14336 17.8978 7.04897 17.9385C6.95458 17.9793 6.85281 18.0002 6.75 18H6C5.52007 18.0002 5.04168 17.9458 4.57406 17.8378C4.5062 17.823 4.43556 17.8273 4.37001 17.8503C4.30447 17.8733 4.2466 17.9141 4.20285 17.968C4.15911 18.022 4.13121 18.087 4.12226 18.1559C4.11331 18.2248 4.12367 18.2948 4.15219 18.3581C4.43694 18.9877 4.86303 19.5431 5.39736 19.9812C5.93168 20.4192 6.55983 20.7282 7.23298 20.884C7.90613 21.0398 8.60615 21.0383 9.27862 20.8796C9.95109 20.7208 10.5779 20.4091 11.1103 19.9688C11.154 19.9335 11.1892 19.889 11.2134 19.8384C11.2376 19.7877 11.2501 19.7323 11.25 19.6763V16.5C11.25 15.7044 10.9339 14.9413 10.3713 14.3787C9.80871 13.8161 9.04565 13.5 8.25 13.5C8.1481 13.5001 8.04725 13.4795 7.95359 13.4394C7.85993 13.3993 7.77543 13.3405 7.70525 13.2666C7.63506 13.1927 7.58067 13.1053 7.54538 13.0097C7.51009 12.9142 7.49465 12.8124 7.5 12.7106C7.51436 12.5149 7.60324 12.332 7.74835 12.1998C7.89346 12.0676 8.08374 11.9961 8.28 12C9.12715 12.0045 9.95559 12.2496 10.6687 12.7069C10.7252 12.7441 10.7907 12.7653 10.8582 12.7683C10.9258 12.7713 10.9929 12.756 11.0524 12.7241C11.112 12.6921 11.1618 12.6446 11.1966 12.5866C11.2314 12.5286 11.2498 12.4623 11.25 12.3947V4.07719C11.2503 3.97875 11.2119 3.88413 11.1431 3.81375C10.3731 3.05177 9.33333 2.62457 8.25 2.625ZM9 7.125C9 8.02011 8.64442 8.87855 8.01148 9.51149C7.37855 10.1444 6.5201 10.5 5.625 10.5H5.25C5.05109 10.5 4.86032 10.421 4.71967 10.2803C4.57902 10.1397 4.5 9.94891 4.5 9.75C4.5 9.55109 4.57902 9.36032 4.71967 9.21967C4.86032 9.07902 5.05109 9 5.25 9H5.625C5.87123 9 6.11504 8.9515 6.34253 8.85727C6.57002 8.76305 6.77671 8.62494 6.95082 8.45083C7.12493 8.27672 7.26304 8.07002 7.35727 7.84253C7.4515 7.61505 7.5 7.37123 7.5 7.125V6.75C7.5 6.55109 7.57902 6.36032 7.71967 6.21967C7.86032 6.07902 8.05109 6 8.25 6C8.44891 6 8.63968 6.07902 8.78033 6.21967C8.92098 6.36032 9 6.55109 9 6.75V7.125Z" fill="#1E5DA6"/>
</svg>
