<svg width="44" height="44" viewBox="0 0 44 44" fill="none" xmlns="http://www.w3.org/2000/svg">
<rect x="0.25" y="0.25" width="43.5" height="43.5" rx="7.75" fill="#EFD3FF"/>
<rect x="0.25" y="0.25" width="43.5" height="43.5" rx="7.75" stroke="#9310DF" stroke-width="0.5"/>
<path d="M26.5 11.5H17.5C16.9033 11.5 16.331 11.7371 15.909 12.159C15.4871 12.581 15.25 13.1533 15.25 13.75V30.25C15.25 30.8467 15.4871 31.419 15.909 31.841C16.331 32.2629 16.9033 32.5 17.5 32.5H26.5C27.0967 32.5 27.669 32.2629 28.091 31.841C28.5129 31.419 28.75 30.8467 28.75 30.25V13.75C28.75 13.1533 28.5129 12.581 28.091 12.159C27.669 11.7371 27.0967 11.5 26.5 11.5ZM17.5 13H26.5C26.6989 13 26.8897 13.079 27.0303 13.2197C27.171 13.3603 27.25 13.5511 27.25 13.75V14.5H16.75V13.75C16.75 13.5511 16.829 13.3603 16.9697 13.2197C17.1103 13.079 17.3011 13 17.5 13ZM26.5 31H17.5C17.3011 31 17.1103 30.921 16.9697 30.7803C16.829 30.6397 16.75 30.4489 16.75 30.25V29.5H27.25V30.25C27.25 30.4489 27.171 30.6397 27.0303 30.7803C26.8897 30.921 26.6989 31 26.5 31Z" fill="#9310DF"/>
</svg>
