<svg width="44" height="44" viewBox="0 0 44 44" fill="none" xmlns="http://www.w3.org/2000/svg">
<rect x="0.25" y="0.25" width="43.5" height="43.5" rx="7.75" fill="white" fill-opacity="0.3"/>
<rect x="0.25" y="0.25" width="43.5" height="43.5" rx="7.75" stroke="#C9E265" stroke-width="0.5"/>
<path d="M28.75 29.1718V31.7499C28.75 31.9489 28.671 32.1396 28.5303 32.2803C28.3897 32.4209 28.1989 32.4999 28 32.4999C27.8011 32.4999 27.6103 32.4209 27.4697 32.2803C27.329 32.1396 27.25 31.9489 27.25 31.7499V29.1718C27.2537 28.0567 26.9449 26.9628 26.3587 26.0142C25.7724 25.0655 24.9322 24.3001 23.9331 23.8046L19.3956 21.5368C18.1469 20.9175 17.0967 19.9607 16.3639 18.775C15.6312 17.5892 15.2453 16.2219 15.25 14.8281V12.2499C15.25 12.051 15.329 11.8603 15.4697 11.7196C15.6103 11.579 15.8011 11.4999 16 11.4999C16.1989 11.4999 16.3897 11.579 16.5303 11.7196C16.671 11.8603 16.75 12.051 16.75 12.2499V14.8281C16.7463 15.9432 17.0551 17.0371 17.6414 17.9857C18.2276 18.9343 19.0678 19.6998 20.0669 20.1953L24.6044 22.4631C25.8531 23.0824 26.9033 24.0392 27.6361 25.2249C28.3688 26.4107 28.7547 27.778 28.75 29.1718ZM25.2981 27.9999H17.8666C17.7638 28.0002 17.662 27.9792 17.5676 27.9385C17.4732 27.8977 17.3882 27.838 17.3179 27.763C17.2475 27.688 17.1934 27.5994 17.1587 27.5025C17.1241 27.4057 17.1098 27.3028 17.1166 27.2003C17.1334 27.0071 17.2227 26.8276 17.3665 26.6976C17.5104 26.5677 17.6981 26.4971 17.8919 26.4999H24.0344C24.1093 26.4998 24.1825 26.4773 24.2445 26.4352C24.3065 26.3931 24.3545 26.3334 24.3823 26.2638C24.41 26.1942 24.4163 26.1178 24.4002 26.0446C24.3842 25.9714 24.3465 25.9047 24.2922 25.8531C23.9828 25.5712 23.6357 25.3336 23.2609 25.1471L18.8875 22.959C18.8271 22.9288 18.7597 22.9155 18.6924 22.9205C18.6251 22.9254 18.5603 22.9484 18.505 22.9871C17.4983 23.6735 16.6752 24.5961 16.1077 25.6743C15.5403 26.7525 15.2458 27.9534 15.25 29.1718V31.7246C15.2469 31.9185 15.3175 32.1063 15.4475 32.2502C15.5774 32.3941 15.7571 32.4834 15.9503 32.4999C16.0529 32.5068 16.1558 32.4924 16.2526 32.4578C16.3494 32.4231 16.4381 32.369 16.5131 32.2986C16.5881 32.2283 16.6478 32.1433 16.6886 32.0489C16.7293 31.9545 16.7502 31.8528 16.75 31.7499V30.2499H25.375C25.4745 30.2499 25.5698 30.2104 25.6402 30.1401C25.7105 30.0698 25.75 29.9744 25.75 29.8749V29.1718C25.75 28.8785 25.7217 28.5859 25.6656 28.2981C25.648 28.2137 25.6018 28.138 25.5348 28.0837C25.4679 28.0294 25.3843 27.9998 25.2981 27.9999ZM27.9503 11.4999C27.7571 11.5165 27.5774 11.6058 27.4475 11.7497C27.3175 11.8935 27.2469 12.0814 27.25 12.2753V13.7499H18.625C18.5255 13.7499 18.4302 13.7894 18.3598 13.8598C18.2895 13.9301 18.25 14.0255 18.25 14.1249V14.8281C18.25 15.1213 18.2783 15.4139 18.3344 15.7018C18.352 15.7862 18.3982 15.8619 18.4652 15.9162C18.5321 15.9705 18.6157 16 18.7019 15.9999H26.1081C26.3016 15.9976 26.4889 16.0684 26.6323 16.1983C26.7757 16.3282 26.8648 16.5075 26.8816 16.7003C26.8884 16.8028 26.874 16.9057 26.8394 17.0025C26.8048 17.0994 26.7506 17.188 26.6803 17.263C26.6099 17.338 26.5249 17.3977 26.4305 17.4385C26.3361 17.4792 26.2344 17.5002 26.1316 17.4999H19.9656C19.8907 17.5 19.8175 17.5226 19.7555 17.5647C19.6935 17.6068 19.6455 17.6665 19.6177 17.7361C19.59 17.8057 19.5837 17.8821 19.5998 17.9553C19.6159 18.0285 19.6535 18.0952 19.7078 18.1468C20.0172 18.4287 20.3643 18.6663 20.7391 18.8528L25.1144 21.0409C25.1748 21.071 25.2422 21.0844 25.3095 21.0794C25.3768 21.0745 25.4416 21.0514 25.4969 21.0128C26.5032 20.3262 27.326 19.4034 27.8931 18.3252C28.4602 17.2471 28.7544 16.0463 28.75 14.8281V12.2499C28.7502 12.1471 28.7293 12.0454 28.6886 11.951C28.6478 11.8566 28.5881 11.7716 28.5131 11.7012C28.4381 11.6309 28.3494 11.5767 28.2526 11.5421C28.1558 11.5075 28.0529 11.4931 27.9503 11.4999Z" fill="#C9E265"/>
</svg>
