<svg width="24" height="24" viewBox="0 0 24 24" fill="none" xmlns="http://www.w3.org/2000/svg">
<path d="M18.75 19.1719V21.75C18.75 21.9489 18.671 22.1397 18.5303 22.2803C18.3897 22.421 18.1989 22.5 18 22.5C17.8011 22.5 17.6103 22.421 17.4697 22.2803C17.329 22.1397 17.25 21.9489 17.25 21.75V19.1719C17.2537 18.0567 16.9449 16.9628 16.3587 16.0142C15.7724 15.0656 14.9322 14.3002 13.9331 13.8047L9.39564 11.5369C8.14692 10.9175 7.09667 9.96077 6.36395 8.77503C5.63123 7.58929 5.24533 6.22199 5.25001 4.82812V2.25C5.25001 2.05109 5.32903 1.86032 5.46968 1.71967C5.61033 1.57902 5.8011 1.5 6.00001 1.5C6.19892 1.5 6.38969 1.57902 6.53034 1.71967C6.67099 1.86032 6.75001 2.05109 6.75001 2.25V4.82812C6.74633 5.94327 7.05512 7.03715 7.64136 7.98578C8.2276 8.9344 9.06785 9.69983 10.0669 10.1953L14.6044 12.4631C15.8531 13.0825 16.9034 14.0392 17.6361 15.225C18.3688 16.4107 18.7547 17.778 18.75 19.1719ZM15 18.75H6.76595C6.80203 18.2391 6.9038 17.7349 7.06876 17.25H13.8853C14.0842 17.25 14.275 17.171 14.4157 17.0303C14.5563 16.8897 14.6353 16.6989 14.6353 16.5C14.6353 16.3011 14.5563 16.1103 14.4157 15.9697C14.275 15.829 14.0842 15.75 13.8853 15.75H7.82439C8.20075 15.2059 8.66488 14.7282 9.19782 14.3362C9.27736 14.278 9.34463 14.2046 9.3958 14.1203C9.44697 14.036 9.48103 13.9424 9.49605 13.845C9.51107 13.7475 9.50674 13.6481 9.48332 13.5523C9.4599 13.4565 9.41784 13.3663 9.35954 13.2867C9.30125 13.2072 9.22786 13.1399 9.14357 13.0887C9.05927 13.0376 8.96573 13.0035 8.86827 12.9885C8.77081 12.9735 8.67135 12.9778 8.57556 13.0012C8.47978 13.0246 8.38954 13.0667 8.31001 13.125C7.36261 13.8234 6.59224 14.7343 6.06079 15.7845C5.52935 16.8347 5.25165 17.9949 5.25001 19.1719V21.75C5.25001 21.9489 5.32903 22.1397 5.46968 22.2803C5.61033 22.421 5.8011 22.5 6.00001 22.5C6.19892 22.5 6.38969 22.421 6.53034 22.2803C6.67099 22.1397 6.75001 21.9489 6.75001 21.75V20.25H15C15.1989 20.25 15.3897 20.171 15.5303 20.0303C15.671 19.8897 15.75 19.6989 15.75 19.5C15.75 19.3011 15.671 19.1103 15.5303 18.9697C15.3897 18.829 15.1989 18.75 15 18.75ZM18 1.5C17.8011 1.5 17.6103 1.57902 17.4697 1.71967C17.329 1.86032 17.25 2.05109 17.25 2.25V3.75H9.00001C8.8011 3.75 8.61033 3.82902 8.46968 3.96967C8.32903 4.11032 8.25001 4.30109 8.25001 4.5C8.25001 4.69891 8.32903 4.88968 8.46968 5.03033C8.61033 5.17098 8.8011 5.25 9.00001 5.25H17.2341C17.198 5.76093 17.0962 6.26508 16.9313 6.75H10.1147C9.91579 6.75 9.72502 6.82902 9.58437 6.96967C9.44372 7.11032 9.3647 7.30109 9.3647 7.5C9.3647 7.69891 9.44372 7.88968 9.58437 8.03033C9.72502 8.17098 9.91579 8.25 10.1147 8.25H16.1756C15.7993 8.79406 15.3351 9.27181 14.8022 9.66375C14.7228 9.72204 14.6556 9.79541 14.6046 9.87965C14.5535 9.9639 14.5196 10.0574 14.5046 10.1547C14.4897 10.2521 14.4941 10.3515 14.5176 10.4471C14.541 10.5428 14.5831 10.6329 14.6414 10.7123C14.7591 10.8727 14.9358 10.9798 15.1324 11.0099C15.2298 11.0248 15.3291 11.0204 15.4248 10.997C15.5205 10.9735 15.6106 10.9314 15.69 10.8731C16.6372 10.1749 17.4074 9.26432 17.9388 8.21448C18.4702 7.16464 18.7481 6.00481 18.75 4.82812V2.25C18.75 2.05109 18.671 1.86032 18.5303 1.71967C18.3897 1.57902 18.1989 1.5 18 1.5Z" fill="white"/>
</svg>
