<svg width="44" height="44" viewBox="0 0 44 44" fill="none" xmlns="http://www.w3.org/2000/svg">
<rect x="0.25" y="0.25" width="43.5" height="43.5" rx="7.75" fill="white" fill-opacity="0.3"/>
<rect x="0.25" y="0.25" width="43.5" height="43.5" rx="7.75" stroke="#C9E265" stroke-width="0.5"/>
<path d="M30.25 15.25H26.5V14.5C26.5 13.9033 26.2629 13.331 25.841 12.909C25.419 12.4871 24.8467 12.25 24.25 12.25H19.75C19.1533 12.25 18.581 12.4871 18.159 12.909C17.7371 13.331 17.5 13.9033 17.5 14.5V15.25H13.75C13.3522 15.25 12.9706 15.408 12.6893 15.6893C12.408 15.9706 12.25 16.3522 12.25 16.75V28.75C12.25 29.1478 12.408 29.5294 12.6893 29.8107C12.9706 30.092 13.3522 30.25 13.75 30.25H30.25C30.6478 30.25 31.0294 30.092 31.3107 29.8107C31.592 29.5294 31.75 29.1478 31.75 28.75V16.75C31.75 16.3522 31.592 15.9706 31.3107 15.6893C31.0294 15.408 30.6478 15.25 30.25 15.25ZM24.25 23.5H22.75V25C22.75 25.1989 22.671 25.3897 22.5303 25.5303C22.3897 25.671 22.1989 25.75 22 25.75C21.8011 25.75 21.6103 25.671 21.4697 25.5303C21.329 25.3897 21.25 25.1989 21.25 25V23.5H19.75C19.5511 23.5 19.3603 23.421 19.2197 23.2803C19.079 23.1397 19 22.9489 19 22.75C19 22.5511 19.079 22.3603 19.2197 22.2197C19.3603 22.079 19.5511 22 19.75 22H21.25V20.5C21.25 20.3011 21.329 20.1103 21.4697 19.9697C21.6103 19.829 21.8011 19.75 22 19.75C22.1989 19.75 22.3897 19.829 22.5303 19.9697C22.671 20.1103 22.75 20.3011 22.75 20.5V22H24.25C24.4489 22 24.6397 22.079 24.7803 22.2197C24.921 22.3603 25 22.5511 25 22.75C25 22.9489 24.921 23.1397 24.7803 23.2803C24.6397 23.421 24.4489 23.5 24.25 23.5ZM25 15.25H19V14.5C19 14.3011 19.079 14.1103 19.2197 13.9697C19.3603 13.829 19.5511 13.75 19.75 13.75H24.25C24.4489 13.75 24.6397 13.829 24.7803 13.9697C24.921 14.1103 25 14.3011 25 14.5V15.25Z" fill="#C9E265"/>
</svg>
