<svg width="44" height="44" viewBox="0 0 44 44" fill="none" xmlns="http://www.w3.org/2000/svg">
<rect x="0.25" y="0.25" width="43.5" height="43.5" rx="7.75" fill="#E5E4FF"/>
<rect x="0.25" y="0.25" width="43.5" height="43.5" rx="7.75" stroke="#4943FD" stroke-width="0.5"/>
<path d="M33.0466 21.4028C32.9509 21.2347 32.8227 21.0874 32.6695 20.9694C32.5162 20.8514 32.341 20.7651 32.1541 20.7156C31.4758 20.5411 30.775 20.4709 30.0756 20.5075C30.4506 18.6466 30.1694 17.1747 29.8881 16.3019C29.7734 15.9434 29.5294 15.6404 29.2036 15.4519C28.8779 15.2633 28.4936 15.2027 28.1256 15.2819C27.1716 15.4943 26.2645 15.8794 25.4491 16.4181C24.8518 15.1981 23.9823 14.1316 22.9075 13.3009C22.647 13.1056 22.3303 13 22.0047 13C21.6791 13 21.3623 13.1056 21.1019 13.3009C20.0254 14.1311 19.1542 15.1976 18.5556 16.4181C17.7401 15.8794 16.833 15.4943 15.8791 15.2819C15.5112 15.2023 15.1269 15.2628 14.8011 15.4514C14.4754 15.64 14.2317 15.9432 14.1175 16.3019C13.8363 17.1747 13.555 18.6456 13.9244 20.5075C13.225 20.4709 12.5242 20.5411 11.8459 20.7156C11.659 20.7651 11.4838 20.8514 11.3305 20.9694C11.1773 21.0874 11.0491 21.2347 10.9534 21.4028C10.8534 21.5749 10.7887 21.7651 10.7629 21.9624C10.7372 22.1598 10.751 22.3602 10.8034 22.5522C11.1213 23.7316 12.0972 25.9731 15.0531 27.7394C18.0091 29.5056 20.6059 29.5 22.0047 29.5C23.4034 29.5 26.005 29.5 28.9422 27.7394C31.8981 25.9731 32.8741 23.7316 33.1919 22.5522C33.2451 22.3605 33.2596 22.1602 33.2347 21.9629C33.2097 21.7656 33.1458 21.5752 33.0466 21.4028ZM15.8219 26.4522C13.3253 24.9597 12.5144 23.1297 12.25 22.1594C12.9398 21.9891 13.6557 21.9518 14.3594 22.0497C14.5943 22.679 14.8812 23.2877 15.2172 23.8694C16.0421 25.2915 17.1227 26.5489 18.4047 27.5781C17.4982 27.3175 16.6298 26.9389 15.8219 26.4522ZM22 27.85C21.1253 27.1994 19 25.2034 19 21.1722C19 17.1906 21.0981 15.1787 22 14.5C22.9019 15.1806 25 17.1925 25 21.1741C25 25.2034 22.8747 27.1994 22 27.85ZM31.75 22.1613C31.4903 23.1213 30.6813 24.9559 28.1791 26.4522C27.3711 26.9386 26.5027 27.3169 25.5963 27.5772C26.8782 26.5479 27.9589 25.2906 28.7838 23.8684C29.1197 23.2867 29.4066 22.6781 29.6416 22.0488C30.3451 21.9518 31.0606 21.9897 31.75 22.1603V22.1613Z" fill="#4943FD"/>
</svg>
