<svg width="24" height="24" viewBox="0 0 24 24" fill="none" xmlns="http://www.w3.org/2000/svg">
<path d="M12 2C13.1 2 14 2.9 14 4C14 5.1 13.1 6 12 6C10.9 6 10 5.1 10 4C10 2.9 10.9 2 12 2Z" fill="currentColor"/>
<path d="M8 7C9.1 7 10 7.9 10 9C10 10.1 9.1 11 8 11C6.9 11 6 10.1 6 9C6 7.9 6.9 7 8 7Z" fill="currentColor"/>
<path d="M16 7C17.1 7 18 7.9 18 9C18 10.1 17.1 11 16 11C14.9 11 14 10.1 14 9C14 7.9 14.9 7 16 7Z" fill="currentColor"/>
<path d="M12 12C13.1 12 14 12.9 14 14C14 15.1 13.1 16 12 16C10.9 16 10 15.1 10 14C10 12.9 10.9 12 12 12Z" fill="currentColor"/>
<path d="M8 17C9.1 17 10 17.9 10 19C10 20.1 9.1 21 8 21C6.9 21 6 20.1 6 19C6 17.9 6.9 17 8 17Z" fill="currentColor"/>
<path d="M16 17C17.1 17 18 17.9 18 19C18 20.1 17.1 21 16 21C14.9 21 14 20.1 14 19C14 17.9 14.9 17 16 17Z" fill="currentColor"/>
<path d="M12 22C13.1 22 14 21.1 14 20C14 18.9 13.1 18 12 18C10.9 18 10 18.9 10 20C10 21.1 10.9 22 12 22Z" fill="currentColor"/>
</svg>
