<svg width="24" height="24" viewBox="0 0 24 24" fill="none" xmlns="http://www.w3.org/2000/svg">
<path d="M12 7C12.663 7 13.2989 6.73661 13.7678 6.26777C14.2366 5.79893 14.5 5.16304 14.5 4.5C14.5 3.83696 14.2366 3.20107 13.7678 2.73223C13.2989 2.26339 12.663 2 12 2C11.337 2 10.7011 2.26339 10.2322 2.73223C9.76339 3.20107 9.5 3.83696 9.5 4.5C9.5 5.16304 9.76339 5.79893 10.2322 6.26777C10.7011 6.73661 11.337 7 12 7Z" fill="#0F6839"/>
<path fill-rule="evenodd" clip-rule="evenodd" d="M7.268 7.99997C7.44354 7.69596 7.69602 7.4435 8.00004 7.26798C8.30407 7.09246 8.64894 7.00006 9 7.00006C9.35106 7.00006 9.69593 7.09246 9.99996 7.26798C10.304 7.4435 10.5565 7.69596 10.732 7.99997H17C17.2652 7.99997 17.5196 8.10533 17.7071 8.29287C17.8946 8.4804 18 8.73476 18 8.99997C18 9.26519 17.8946 9.51954 17.7071 9.70708C17.5196 9.89462 17.2652 9.99997 17 9.99997H15.792C16.0179 10.516 16.0626 11.0933 15.9188 11.638C15.775 12.1827 15.4512 12.6627 15 13V14.59L17.226 20.134C17.3298 20.3916 17.337 20.678 17.2465 20.9406C17.156 21.2031 16.9737 21.4242 16.7332 21.5631C16.4927 21.702 16.2102 21.7495 15.9375 21.6967C15.6648 21.644 15.4203 21.4946 15.249 21.276L11.982 17.114L11.485 17.748C11.44 18.1086 11.2977 18.4501 11.0732 18.7359C10.8488 19.0216 10.5507 19.2409 10.211 19.37L8.716 21.276C8.54467 21.4946 8.3002 21.644 8.02752 21.6967C7.75485 21.7495 7.47229 21.702 7.2318 21.5631C6.99131 21.4242 6.80904 21.2031 6.7185 20.9406C6.62796 20.678 6.63524 20.3916 6.739 20.134L7.576 18.048C7.45445 17.6214 7.47818 17.1664 7.64346 16.7548C7.80874 16.3431 8.10618 15.9981 8.489 15.774L9 14.5V11C8.64894 11 8.30406 10.9075 8.00003 10.732C7.696 10.5565 7.44353 10.304 7.268 9.99997H7C6.73478 9.99997 6.48043 9.89462 6.29289 9.70708C6.10536 9.51954 6 9.26519 6 8.99997C6 8.73476 6.10536 8.4804 6.29289 8.29287C6.48043 8.10533 6.73478 7.99997 7 7.99997H7.268ZM9 9.99997C9.26522 9.99997 9.51957 9.89462 9.70711 9.70708C9.89464 9.51954 10 9.26519 10 8.99997C10 8.73476 9.89464 8.4804 9.70711 8.29287C9.51957 8.10533 9.26522 7.99997 9 7.99997C8.73478 7.99997 8.48043 8.10533 8.29289 8.29287C8.10536 8.4804 8 8.73476 8 8.99997C8 9.26519 8.10536 9.51954 8.29289 9.70708C8.48043 9.89462 8.73478 9.99997 9 9.99997ZM13.5 12.5C13.697 12.5 13.892 12.4612 14.074 12.3858C14.256 12.3104 14.4214 12.1999 14.5607 12.0606C14.6999 11.9213 14.8104 11.756 14.8858 11.574C14.9612 11.392 15 11.197 15 11C15 10.803 14.9612 10.6079 14.8858 10.4259C14.8104 10.244 14.6999 10.0786 14.5607 9.93931C14.4214 9.80002 14.256 9.68954 14.074 9.61415C13.892 9.53877 13.697 9.49997 13.5 9.49997C13.1022 9.49997 12.7206 9.65801 12.4393 9.93931C12.158 10.2206 12 10.6021 12 11C12 11.3978 12.158 11.7793 12.4393 12.0606C12.7206 12.3419 13.1022 12.5 13.5 12.5ZM9.5 18.5C9.76522 18.5 10.0196 18.3946 10.2071 18.2071C10.3946 18.0195 10.5 17.7652 10.5 17.5C10.5 17.2348 10.3946 16.9804 10.2071 16.7929C10.0196 16.6053 9.76522 16.5 9.5 16.5C9.23478 16.5 8.98043 16.6053 8.79289 16.7929C8.60536 16.9804 8.5 17.2348 8.5 17.5C8.5 17.7652 8.60536 18.0195 8.79289 18.2071C8.98043 18.3946 9.23478 18.5 9.5 18.5Z" fill="#0F6839"/>
</svg>
