<svg width="24" height="24" viewBox="0 0 24 24" fill="none" xmlns="http://www.w3.org/2000/svg">
<path fill-rule="evenodd" clip-rule="evenodd" d="M11.455 3H8.038V3.232C8.035 4.598 8.033 5.9145 8.763 7.142C9.271 7.9955 10.0265 8.595 10.788 9.1995C10.9 9.28783 11.0117 9.37683 11.123 9.4665C12.633 10.685 11.688 12.6135 10.099 13.0665C9.6075 13.2065 9.1435 13.3105 8.7075 13.4075C6.984 13.7915 5.699 14.0775 4.8435 16.169C4.61696 16.7218 4.50028 17.3135 4.5 17.911V21H7.9135V17.777C7.9135 16.8925 8.914 16.352 9.6885 16.7335C11.7175 17.7325 14.1475 18.0505 16.3235 17.2065C17.7925 16.637 18.7805 15.561 19.581 14.253C20.7495 12.343 20.796 9.9025 19.6985 7.951C18.737 6.2405 17.3995 4.564 15.234 4.564C14.798 4.564 14.329 4.734 13.8665 4.9005C13.0525 5.1955 12.259 5.482 11.7015 4.8215C11.388 4.451 11.4165 3.8885 11.4415 3.389C11.4485 3.253 11.4555 3.1215 11.455 3ZM18.5785 11.91C19.164 12.2775 19.4585 13.0115 19.292 13.622C19.8655 14.336 16.78 16.013 15.072 16.9415C14.662 17.164 14.331 17.3435 14.1495 17.4565C14.0536 17.3024 13.9671 17.1426 13.8905 16.978C13.2695 16.857 12.7415 16.268 12.6715 15.58C12.6015 14.892 13.013 14.343 13.615 14.275C13.6986 13.9632 13.8296 13.666 14.0035 13.394C13.7105 12.764 13.857 12.049 14.3725 11.729C14.888 11.409 15.5935 11.594 16.0285 12.1355C16.3494 12.1001 16.6739 12.1143 16.9905 12.1775C17.318 11.668 17.993 11.5425 18.5785 11.91Z" fill="#0F6839"/>
<path fill-rule="evenodd" clip-rule="evenodd" d="M19.581 14.253C20.7495 12.343 20.796 9.9025 19.6985 7.951C18.737 6.2405 17.3995 4.564 15.234 4.564C14.798 4.564 14.329 4.734 13.8665 4.9005C13.0525 5.1955 12.259 5.482 11.7015 4.8215C11.513 4.5985 11.448 4.3065 11.4315 4C11.4215 3.797 11.4315 3.588 11.4415 3.389C11.4492 3.25946 11.4537 3.12976 11.455 3H8.0385V3.232C8.03783 3.386 8.03783 3.53933 8.0385 3.692C8.0385 3.795 8.0395 3.89767 8.0415 4C8.061 5.092 8.1715 6.1465 8.764 7.142C9.2715 7.9955 10.027 8.595 10.789 9.1995C10.9007 9.28783 11.012 9.37683 11.123 9.4665C12.6335 10.685 11.688 12.6135 10.0995 13.0665C9.608 13.2065 9.144 13.3105 8.708 13.4075C6.9845 13.7915 5.6995 14.0775 4.844 16.169C4.61729 16.7218 4.50044 17.3135 4.5 17.911V21H7.9135V17.777C7.9135 16.8925 8.914 16.352 9.6885 16.7335C11.7175 17.7325 14.1475 18.0505 16.3235 17.2065C17.7925 16.637 18.7805 15.561 19.581 14.253ZM6.9135 20V17.777C6.9135 16.057 8.7785 15.171 10.13 15.8365C11.9675 16.741 14.1025 16.9955 15.9625 16.2745C17.151 15.8135 17.991 14.9355 18.7275 13.731C19.7075 12.1295 19.7465 10.076 18.827 8.441C17.878 6.753 16.7955 5.564 15.234 5.564C15.0965 5.564 14.903 5.603 14.609 5.7C14.4805 5.742 14.351 5.789 14.2055 5.8415L14.157 5.859C13.9985 5.9165 13.8205 5.98 13.6405 6.036C13.2955 6.1435 12.8425 6.256 12.3655 6.2145C11.838 6.168 11.3355 5.938 10.9375 5.467C10.525 4.9785 10.4465 4.397 10.431 4H9.043C9.063 5.029 9.1595 5.8525 9.623 6.6305C10.03 7.3155 10.6295 7.793 11.403 8.4105C11.515 8.49917 11.6308 8.59167 11.7505 8.688C12.844 9.5705 13.1005 10.807 12.7155 11.889C12.354 12.9025 11.4595 13.7185 10.3735 14.028C9.8505 14.1775 9.3515 14.2885 8.914 14.386L8.6215 14.451C8.1015 14.5695 7.6935 14.675 7.3405 14.8205C6.723 15.0755 6.208 15.474 5.769 16.5475C5.59162 16.9802 5.50025 17.4433 5.5 17.911V20H6.9135Z" fill="#0F6839"/>
</svg>
