<svg width="24" height="24" viewBox="0 0 24 24" fill="none" xmlns="http://www.w3.org/2000/svg">
<path d="M13.1 2C13.4978 2 13.8794 2.15804 14.1607 2.43934C14.442 2.72064 14.6 3.10218 14.6 3.5V5.9385C14.6 6.355 14.457 6.7585 14.1815 7.0835C13.932 7.3785 13.6365 7.536 13.4265 7.6215C13.032 7.7825 12.6035 7.823 12.3215 7.8415C12.019 7.8605 11.68 7.863 11.375 7.865H11.3385C11.006 7.8675 10.6895 7.87 10.379 7.8865C9.713 7.9215 9.305 8.014 9.095 8.129C9.06983 8.14194 9.04633 8.1579 9.025 8.1765C9.1125 8.21 9.2315 8.2465 9.387 8.2805C10.096 8.438 11.067 8.469 12.2605 8.5075L12.549 8.517C13.755 8.5565 15.212 8.614 16.3725 8.966C16.968 9.146 17.6245 9.4425 18.1425 9.9725C18.703 10.545 19 11.2875 19 12.131C19 13.026 18.6445 13.8 17.985 14.347C17.396 14.835 16.672 15.0535 16.047 15.166C14.8495 15.3815 13.338 15.311 12.052 15.251L11.9305 15.2455C10.493 15.1785 9.314 15.133 8.4885 15.284C8.34397 15.3082 8.20202 15.3459 8.0645 15.3965C8.0395 15.4065 8.01817 15.4157 8.0005 15.424C8.0035 15.5165 8.0155 15.576 8.025 15.611C8.02985 15.6316 8.03795 15.6514 8.049 15.6695C8.0515 15.6735 8.0805 15.7175 8.214 15.776C8.551 15.925 9.145 15.994 10.0135 15.973C10.4085 15.963 10.8085 15.938 11.2175 15.9115L11.2575 15.909C11.6625 15.883 12.0995 15.855 12.4875 15.854C12.839 15.854 13.3355 15.8705 13.786 16.0265C14.026 16.11 14.3605 16.268 14.641 16.584C14.9515 16.933 15.1 17.366 15.1 17.8V20.5C15.1 20.8978 14.942 21.2794 14.6607 21.5607C14.3794 21.842 13.9978 22 13.6 22C13.2022 22 12.8206 21.842 12.5393 21.5607C12.258 21.2794 12.1 20.8978 12.1 20.5V18.865C11.8831 18.8755 11.6662 18.888 11.4495 18.9025L11.391 18.9065C10.996 18.9315 10.543 18.961 10.0865 18.972C9.18 18.994 7.999 18.9595 7.005 18.522C6.4755 18.289 5.9485 17.9205 5.5615 17.3465C5.1715 16.768 5 16.0935 5 15.3795C5 14.4855 5.353 13.71 6.0105 13.16C6.5985 12.6685 7.323 12.4475 7.949 12.333C9.154 12.113 10.674 12.1835 11.965 12.2435L12.07 12.2485C13.508 12.3155 14.688 12.3625 15.515 12.2135C15.6598 12.1897 15.8021 12.1524 15.94 12.102L15.997 12.078L15.9955 12.068C15.963 12.036 15.8365 11.938 15.5025 11.837C14.788 11.6205 13.745 11.5575 12.451 11.515L12.101 11.5045C11.002 11.4705 9.7395 11.4315 8.738 11.2095C8.177 11.0855 7.521 10.8695 6.983 10.432C6.375 9.937 6 9.222 6 8.359C6 7.7365 6.1415 7.144 6.458 6.6215C6.773 6.1015 7.208 5.7415 7.655 5.497C8.495 5.0375 9.487 4.9295 10.221 4.8905C10.6105 4.8705 10.994 4.8675 11.318 4.8655L11.6 4.863V3.5C11.6 3.10218 11.758 2.72064 12.0393 2.43934C12.3206 2.15804 12.7022 2 13.1 2Z" fill="#0F6839"/>
</svg>
