<svg width="24" height="24" viewBox="0 0 24 24" fill="none" xmlns="http://www.w3.org/2000/svg">
<path d="M10.932 4.46998C10.91 4.06598 10.874 3.42598 10.61 2.91298C10.452 2.59523 10.1951 2.33733 9.878 2.17798C9.529 2.00498 9.136 1.96798 8.728 2.02398C8.358 2.07498 8.024 2.22398 7.76 2.47898C7.502 2.72898 7.35 3.03798 7.269 3.34698C7.11 3.94498 7.179 4.64698 7.337 5.30798C7.655 6.64698 8.428 8.18598 9.3 9.23598C9.442 9.40798 9.546 9.63298 9.614 9.86798C9.681 10.104 9.701 10.31 9.701 10.408V10.476L11.208 10.806V10.408C11.208 9.97398 11.071 9.01498 10.461 8.28098C9.736 7.40698 9.068 6.07598 8.803 4.96298C8.669 4.39698 8.66 3.97798 8.726 3.72998C8.756 3.61598 8.793 3.57198 8.809 3.55698C8.819 3.54698 8.846 3.52198 8.933 3.50998C9.127 3.48398 9.198 3.51598 9.207 3.51998C9.213 3.52398 9.237 3.53498 9.269 3.59898C9.364 3.78198 9.402 4.09498 9.428 4.56098L9.433 4.64698C9.442 4.82698 9.453 5.03198 9.476 5.20998C9.498 5.38598 9.548 5.70998 9.749 5.96998C9.869 6.12498 10.049 6.26498 10.289 6.32398C10.519 6.37898 10.728 6.34398 10.887 6.28998C11.182 6.19198 11.465 5.97998 11.73 5.74498C11.7421 5.73405 11.7556 5.72465 11.77 5.71698L11.796 5.70798C11.8655 5.69795 11.9359 5.69526 12.006 5.69998L12.014 5.70098C12.0362 5.71491 12.057 5.73099 12.076 5.74898C12.341 5.98398 12.624 6.19498 12.919 6.29298C13.079 6.34598 13.288 6.38298 13.516 6.32698C13.7315 6.27432 13.9225 6.14937 14.057 5.97298C14.258 5.71298 14.308 5.38898 14.331 5.21298C14.353 5.03498 14.364 4.83098 14.374 4.65098L14.378 4.56398C14.404 4.09798 14.442 3.78598 14.537 3.60198C14.57 3.53798 14.592 3.52798 14.598 3.52498C14.608 3.51998 14.678 3.48698 14.873 3.51398C14.957 3.52498 14.978 3.54798 14.982 3.55098C14.99 3.55998 15.024 3.59898 15.05 3.70998C15.106 3.95598 15.084 4.37498 14.93 4.94398C14.63 6.06198 13.922 7.40098 13.19 8.28398C12.581 9.01698 12.444 9.97598 12.444 10.41V10.784L13.951 10.452V10.41C13.951 10.312 13.971 10.107 14.038 9.86998C14.105 9.63498 14.209 9.40998 14.352 9.23798C15.216 8.19698 16.027 6.66598 16.386 5.33298C16.563 4.67698 16.657 3.97498 16.519 3.37398C16.4486 3.04104 16.2853 2.73487 16.048 2.49098C15.7845 2.23397 15.4435 2.0712 15.078 2.02798C14.67 1.97198 14.277 2.00798 13.928 2.18098C13.6111 2.34076 13.3546 2.59902 13.197 2.91698C12.933 3.42698 12.897 4.06598 12.874 4.46898C12.7306 4.36939 12.5708 4.29562 12.402 4.25098C12.3156 4.21888 12.2242 4.20196 12.132 4.20098H12.058C11.963 4.19827 11.868 4.19827 11.773 4.20098C11.7142 4.20249 11.6556 4.20918 11.598 4.22098C11.398 4.24998 11.166 4.31798 10.932 4.46998ZM9.7 22.004V18.704L11.208 17.269V22.004H9.7ZM12.444 22.004V17.369L13.951 18.805V22.004H12.444Z" fill="#0F6839"/>
<path fill-rule="evenodd" clip-rule="evenodd" d="M22 9.20195V15.166C22 16.061 21.638 19.341 18.38 19.341C16.794 19.341 16.098 18.4879 15.384 17.6119C14.631 16.6889 13.858 15.741 12 15.741C10.142 15.741 9.37 16.6889 8.616 17.6119C7.902 18.4879 7.206 19.3419 5.62 19.3419C2.362 19.3419 2 16.061 2 15.166V9.20195C2 4.40995 4.704 3.23995 6.027 6.51695C6.10567 6.71428 6.18767 6.93262 6.273 7.17195C6.975 9.09395 8.096 12.162 12 12.162C15.904 12.162 17.025 9.09395 17.727 7.17195C17.814 6.93395 17.894 6.71195 17.973 6.51695C19.296 3.23995 22 4.41095 22 9.20195ZM4.999 10.084C5.09774 10.0843 5.19559 10.0652 5.28693 10.0277C5.37827 9.99021 5.46131 9.93503 5.53127 9.86534C5.60123 9.79566 5.65675 9.71285 5.69462 9.62166C5.7325 9.53047 5.752 9.43269 5.752 9.33395C5.752 9.23521 5.7325 9.13743 5.69462 9.04624C5.65675 8.95505 5.60123 8.87224 5.53127 8.80256C5.46131 8.73287 5.37827 8.67769 5.28693 8.64018C5.19559 8.60266 5.09774 8.58355 4.999 8.58395C4.90017 8.58342 4.80222 8.60243 4.71076 8.63989C4.6193 8.67734 4.53615 8.7325 4.46608 8.8022C4.39601 8.8719 4.34041 8.95476 4.30247 9.04601C4.26453 9.13727 4.245 9.23512 4.245 9.33395C4.245 9.74795 4.582 10.084 4.999 10.084ZM6.977 12.334C6.977 12.748 6.639 13.084 6.223 13.084C6.12426 13.0843 6.02641 13.0652 5.93507 13.0277C5.84373 12.9902 5.76069 12.935 5.69073 12.8653C5.62077 12.7957 5.56525 12.7128 5.52738 12.6217C5.4895 12.5305 5.47 12.4327 5.47 12.334C5.47 11.919 5.807 11.584 6.223 11.584C6.639 11.584 6.977 11.919 6.977 12.334ZM8.732 14.938C8.83083 14.9385 8.92878 14.9195 9.02024 14.882C9.1117 14.8446 9.19485 14.7894 9.26492 14.7197C9.33499 14.65 9.39059 14.5671 9.42853 14.4759C9.46647 14.3846 9.486 14.2868 9.486 14.188C9.486 14.0891 9.46647 13.9913 9.42853 13.9C9.39059 13.8088 9.33499 13.7259 9.26492 13.6562C9.19485 13.5865 9.1117 13.5313 9.02024 13.4939C8.92878 13.4564 8.83083 13.4374 8.732 13.438C8.63326 13.4376 8.53541 13.4567 8.44407 13.4942C8.35273 13.5317 8.26969 13.5869 8.19973 13.6566C8.12977 13.7262 8.07425 13.8091 8.03638 13.9002C7.9985 13.9914 7.979 14.0892 7.979 14.188C7.979 14.602 8.316 14.938 8.732 14.938ZM5.752 15.333C5.752 15.747 5.415 16.083 4.999 16.083C4.90017 16.0835 4.80222 16.0645 4.71076 16.027C4.6193 15.9896 4.53615 15.9344 4.46608 15.8647C4.39601 15.795 4.34041 15.7121 4.30247 15.6209C4.26453 15.5296 4.245 15.4318 4.245 15.333C4.245 14.919 4.582 14.583 4.999 14.583C5.415 14.583 5.752 14.919 5.752 15.333ZM18.959 10.083C18.8603 10.0833 18.7624 10.0642 18.6711 10.0267C18.5797 9.98921 18.4967 9.93403 18.4267 9.86434C18.3568 9.79466 18.3013 9.71185 18.2634 9.62066C18.2255 9.52947 18.206 9.43169 18.206 9.33295C18.206 9.13324 18.2853 8.94171 18.4265 8.8005C18.5678 8.65928 18.7593 8.57995 18.959 8.57995C19.1587 8.57995 19.3502 8.65928 19.4915 8.8005C19.6327 8.94171 19.712 9.13324 19.712 9.33295C19.712 9.43169 19.6925 9.52947 19.6546 9.62066C19.6167 9.71185 19.5612 9.79466 19.4913 9.86434C19.4213 9.93403 19.3383 9.98921 19.2469 10.0267C19.1556 10.0642 19.0577 10.0833 18.959 10.083ZM16.981 12.333C16.981 12.748 17.318 13.083 17.734 13.083C17.8328 13.0835 17.9308 13.0645 18.0222 13.027C18.1137 12.9896 18.1969 12.9344 18.2669 12.8647C18.337 12.795 18.3926 12.7121 18.4305 12.6209C18.4685 12.5296 18.488 12.4318 18.488 12.333C18.488 12.2341 18.4685 12.1363 18.4305 12.045C18.3926 11.9538 18.337 11.8709 18.2669 11.8012C18.1969 11.7315 18.1137 11.6763 18.0222 11.6389C17.9308 11.6014 17.8328 11.5824 17.734 11.583C17.6353 11.5826 17.5374 11.6017 17.4461 11.6392C17.3547 11.6767 17.2717 11.7319 17.2017 11.8016C17.1318 11.8712 17.0763 11.9541 17.0384 12.0452C17.0005 12.1364 16.981 12.2342 16.981 12.333ZM18.959 16.083C18.8603 16.0833 18.7624 16.0642 18.6711 16.0267C18.5797 15.9892 18.4967 15.934 18.4267 15.8643C18.3568 15.7947 18.3013 15.7118 18.2634 15.6207C18.2255 15.5295 18.206 15.4317 18.206 15.333C18.206 14.919 18.543 14.583 18.959 14.583C19.375 14.583 19.712 14.919 19.712 15.333C19.712 15.747 19.375 16.083 18.959 16.083ZM14.513 14.188C14.513 14.602 14.851 14.938 15.267 14.938C15.3657 14.9383 15.4636 14.9192 15.5549 14.8817C15.6463 14.8442 15.7293 14.789 15.7993 14.7193C15.8692 14.6497 15.9247 14.5668 15.9626 14.4757C16.0005 14.3845 16.02 14.2867 16.02 14.188C16.02 14.0892 16.0005 13.9914 15.9626 13.9002C15.9247 13.8091 15.8692 13.7262 15.7993 13.6566C15.7293 13.5869 15.6463 13.5317 15.5549 13.4942C15.4636 13.4567 15.3657 13.4376 15.267 13.438C15.1682 13.4374 15.0702 13.4564 14.9788 13.4939C14.8873 13.5313 14.8042 13.5865 14.7341 13.6562C14.664 13.7259 14.6084 13.8088 14.5705 13.9C14.5325 13.9913 14.513 14.0891 14.513 14.188Z" fill="#0F6839"/>
</svg>
