<svg width="24" height="24" viewBox="0 0 24 24" fill="none" xmlns="http://www.w3.org/2000/svg">
<path d="M11 7L13 10L11 13H8L6 10L8 7H11Z" stroke="#0F6839" stroke-width="2" stroke-linecap="round" stroke-linejoin="round"/>
<path d="M16 10L18 7L16 4H13L11 7L13 10M16 10H13M16 10L18 13M13 10L11 13L13 16M16 16L18 19M16 16L18 13M16 16H13M5 4L8 7M8 13L6 15M13 16L11 18M6 10H4M18 13H21" stroke="#0F6839" stroke-width="2" stroke-linecap="round" stroke-linejoin="round"/>
<path d="M9 21C9.55228 21 10 20.5523 10 20C10 19.4477 9.55228 19 9 19C8.44772 19 8 19.4477 8 20C8 20.5523 8.44772 21 9 21Z" fill="#0F6839"/>
<path d="M4 18C4.55228 18 5 17.5523 5 17C5 16.4477 4.55228 16 4 16C3.44772 16 3 16.4477 3 17C3 17.5523 3.44772 18 4 18Z" fill="#0F6839"/>
<path d="M21 8C21.5523 8 22 7.55228 22 7C22 6.44772 21.5523 6 21 6C20.4477 6 20 6.44772 20 7C20 7.55228 20.4477 8 21 8Z" fill="#0F6839"/>
</svg>
