<svg width="59" height="59" viewBox="0 0 59 59" fill="none" xmlns="http://www.w3.org/2000/svg">
<g clip-path="url(#clip0_396_53)">
<path d="M14.6014 28.8334C13.1414 25.2283 12.895 21.2458 13.8994 17.4881C13.9674 17.2326 14.0349 16.979 14.1187 16.7296C14.1778 16.5467 14.305 16.3934 14.4739 16.3015C14.6428 16.2096 14.8405 16.1861 15.0262 16.2358L27.8746 19.6552C28.0181 19.6932 28.147 19.773 28.2451 19.8844C28.3432 19.9958 28.4061 20.1337 28.4257 20.2809C28.4454 20.428 28.4209 20.5776 28.3555 20.7108C28.29 20.844 28.1865 20.9548 28.0581 21.0292L14.6014 28.8334ZM25.2315 39.0645L29.299 23.7809L15.9535 31.5177C18.0919 35.0205 21.3667 37.6842 25.2315 39.0645ZM42.44 36.2422C45.4988 33.8396 47.6922 30.5064 48.6885 26.7466C48.7564 26.4912 48.824 26.2375 48.8752 25.9795C48.9148 25.7913 48.8806 25.5951 48.7798 25.4315C48.6789 25.2678 48.519 25.1491 48.3331 25.0999L35.4847 21.6805C35.3413 21.6422 35.1898 21.6473 35.0493 21.6952C34.9088 21.7431 34.7857 21.8316 34.6956 21.9495C34.6054 22.0674 34.5522 22.2094 34.5428 22.3575C34.5334 22.5056 34.5681 22.6532 34.6426 22.7816L42.44 36.2422ZM53.4229 26.4544L52.6836 26.2577C52.5863 26.2317 52.4847 26.2256 52.385 26.2397C52.2852 26.2539 52.1893 26.288 52.1031 26.34C52.0168 26.392 51.9419 26.4609 51.8828 26.5425C51.8237 26.6241 51.7817 26.7167 51.7592 26.8149C51.6975 27.0468 51.6479 27.284 51.5857 27.5177C50.1117 32.853 46.5909 37.3906 41.7889 40.1436C36.9869 42.8967 31.2922 43.6425 25.9432 42.219C20.5943 40.7955 16.0236 37.3177 13.2253 32.5419C10.427 27.7662 9.62735 22.0788 11.0003 16.7166C11.0625 16.4828 11.1247 16.2491 11.1991 16.0205C11.2284 15.9242 11.238 15.8229 11.2273 15.7227C11.2166 15.6225 11.1858 15.5255 11.1368 15.4375C11.0878 15.3495 11.0215 15.2723 10.942 15.2104C10.8625 15.1486 10.7713 15.1034 10.674 15.0775L9.93652 14.8813C9.55207 14.7789 9.14273 14.8335 8.79854 15.033C8.45436 15.2325 8.20351 15.5606 8.1012 15.945C6.46419 22.0961 7.33774 28.6456 10.5297 34.1526C13.7216 39.6596 18.9705 43.6731 25.1216 45.3101C31.2727 46.9471 37.8221 46.0736 43.3291 42.8816C48.8362 39.6897 52.8496 34.4408 54.4866 28.2897C54.5889 27.9053 54.5344 27.4959 54.3349 27.1517C54.1354 26.8076 53.8073 26.5567 53.4229 26.4544ZM32.1981 24.5524L28.1306 39.8361C32.1703 40.5594 36.3359 39.8758 39.9326 37.8993L32.1981 24.5524Z" fill="#FF7112"/>
</g>
<defs>
<clipPath id="clip0_396_53">
<rect width="48" height="48" fill="white" transform="translate(12.3447) rotate(14.9029)"/>
</clipPath>
</defs>
</svg>
