<svg width="24" height="24" viewBox="0 0 24 24" fill="none" xmlns="http://www.w3.org/2000/svg">
<path d="M20.2903 3.7125C19.3538 2.77608 18.0836 2.25002 16.7592 2.25002C15.4348 2.25002 14.1647 2.77608 13.2281 3.7125L3.7125 13.2272C2.79571 14.1676 2.28633 15.4313 2.29472 16.7446C2.3031 18.0579 2.82858 19.315 3.7573 20.2436C4.68603 21.1722 5.94322 21.6975 7.25652 21.7058C8.56983 21.714 9.83349 21.2044 10.7738 20.2875L20.2903 10.7728C21.225 9.83573 21.7499 8.56621 21.7499 7.24266C21.7499 5.91911 21.225 4.64958 20.2903 3.7125ZM19.2291 9.7125L14.4713 14.4694L9.53157 9.53063L14.2894 4.77281C14.947 4.13036 15.8314 3.77308 16.7508 3.77845C17.6701 3.78382 18.5503 4.15142 19.2004 4.80151C19.8505 5.45159 20.2181 6.33176 20.2234 7.25111C20.2288 8.17046 19.8715 9.05486 19.2291 9.7125ZM17.7825 7.71937C17.8522 7.78903 17.9076 7.87175 17.9453 7.96279C17.983 8.05384 18.0025 8.15144 18.0025 8.25C18.0025 8.34856 17.983 8.44616 17.9453 8.53721C17.9076 8.62825 17.8522 8.71097 17.7825 8.78063L15.5325 11.0306C15.4628 11.1002 15.3801 11.1555 15.2891 11.1931C15.1981 11.2308 15.1005 11.2501 15.002 11.2501C14.9035 11.25 14.806 11.2306 14.715 11.1929C14.624 11.1551 14.5413 11.0998 14.4717 11.0302C14.4021 10.9605 14.3469 10.8778 14.3092 10.7867C14.2716 10.6957 14.2522 10.5982 14.2523 10.4997C14.2523 10.4012 14.2717 10.3036 14.3095 10.2126C14.3472 10.1217 14.4025 10.039 14.4722 9.96938L16.7222 7.71937C16.8628 7.57883 17.0535 7.49988 17.2523 7.49988C17.4512 7.49988 17.6419 7.57883 17.7825 7.71937Z" fill="#659BF2"/>
</svg>
