<svg width="44" height="44" viewBox="0 0 44 44" fill="none" xmlns="http://www.w3.org/2000/svg">
<rect x="0.25" y="0.25" width="43.5" height="43.5" rx="7.75" fill="#DAFFE4"/>
<rect x="0.25" y="0.25" width="43.5" height="43.5" rx="7.75" stroke="#379951" stroke-width="0.5"/>
<path d="M31.75 22.75C31.7497 23.6659 31.5098 24.5658 31.054 25.3604C30.5983 26.1549 29.9427 26.8163 29.1522 27.279C28.3618 27.7418 27.464 27.9896 26.5481 27.998C25.6322 28.0064 24.7301 27.775 23.9313 27.3269L24.9681 30.7844C25.0017 30.8963 25.0087 31.0146 24.9885 31.1298C24.9682 31.2449 24.9214 31.3538 24.8516 31.4476C24.7818 31.5414 24.6911 31.6176 24.5867 31.6701C24.4822 31.7226 24.3669 31.75 24.25 31.75H19.75C19.6331 31.75 19.5178 31.7226 19.4133 31.6701C19.3089 31.6176 19.2182 31.5414 19.1484 31.4476C19.0786 31.3538 19.0318 31.2449 19.0115 31.1298C18.9913 31.0146 18.9983 30.8963 19.0319 30.7844L20.0688 27.3269C19.2699 27.775 18.3678 28.0064 17.4519 27.998C16.536 27.9896 15.6382 27.7418 14.8478 27.279C14.0573 26.8163 13.4017 26.1549 12.946 25.3604C12.4902 24.5658 12.2503 23.6659 12.25 22.75C12.25 19.75 13.9047 16.8587 17.0312 14.3809C18.4667 13.2489 20.0379 12.3006 21.7084 11.5581C21.7998 11.5196 21.898 11.4998 21.9972 11.4998C22.0964 11.4998 22.1945 11.5196 22.2859 11.5581C23.9584 12.3002 25.5316 13.2485 26.9688 14.3809C30.0953 16.8587 31.75 19.75 31.75 22.75Z" fill="#379951"/>
</svg>
