<svg width="57" height="57" viewBox="0 0 57 57" fill="none" xmlns="http://www.w3.org/2000/svg">
<g clip-path="url(#clip0_396_44)">
<path d="M42.2078 33.7389C42.0985 34.3407 41.8055 34.8938 41.369 35.3222C40.9325 35.7506 40.3739 36.0332 39.7702 36.1311L29.6053 37.857L24.3164 46.7112C24.0032 47.2355 23.5367 47.6511 22.9799 47.902C22.423 48.1528 21.8027 48.2269 21.2024 48.1141C20.6022 48.0013 20.051 47.7071 19.6233 47.2712C19.1955 46.8353 18.9118 46.2786 18.8103 45.6764L17.0747 35.502L8.22046 30.2131C7.69616 29.8999 7.28054 29.4334 7.02968 28.8766C6.77882 28.3198 6.70481 27.6994 6.81761 27.0992C6.93041 26.4989 7.22461 25.9478 7.66051 25.52C8.09641 25.0922 8.65303 24.8085 9.25527 24.707L19.4297 22.9714L24.7186 14.1172C25.0318 13.5929 25.4983 13.1773 26.0551 12.9264C26.6119 12.6755 27.2323 12.6015 27.8325 12.7143C28.4327 12.8271 28.9839 13.1213 29.4117 13.5572C29.8394 13.9931 30.1232 14.5498 30.2247 15.152L31.9603 25.3264L40.8145 30.6153C41.3415 30.9276 41.7586 31.3959 42.0082 31.9554C42.2578 32.5149 42.3275 33.1381 42.2078 33.7389ZM35.2131 14.1092L38.1615 14.6633L37.6074 17.6117C37.5339 18.0027 37.6187 18.4068 37.8433 18.7352C38.0678 19.0637 38.4135 19.2895 38.8045 19.3629C39.1955 19.4364 39.5997 19.3516 39.9281 19.1271C40.2565 18.9026 40.4823 18.5568 40.5558 18.1658L41.1099 15.2174L44.0583 15.7715C44.4492 15.845 44.8534 15.7602 45.1818 15.5357C45.5102 15.3112 45.736 14.9654 45.8095 14.5744C45.883 14.1834 45.7981 13.7793 45.5736 13.4508C45.3491 13.1224 45.0034 12.8966 44.6124 12.8231L41.664 12.269L42.2181 9.32065C42.2916 8.92967 42.2067 8.52552 41.9822 8.19709C41.7577 7.86867 41.412 7.64288 41.021 7.5694C40.63 7.49592 40.2258 7.58077 39.8974 7.80527C39.569 8.02978 39.3432 8.37556 39.2697 8.76654L38.7156 11.7149L35.7672 11.1608C35.3762 11.0873 34.9721 11.1722 34.6437 11.3967C34.3152 11.6212 34.0895 11.967 34.016 12.3579C33.9425 12.7489 34.0273 13.1531 34.2518 13.4815C34.4764 13.8099 34.8221 14.0357 35.2131 14.1092ZM50.321 23.0536L48.8468 22.7765L49.1239 21.3023C49.1973 20.9114 49.1125 20.5072 48.888 20.1788C48.6635 19.8504 48.3177 19.6246 47.9267 19.5511C47.5357 19.4776 47.1316 19.5624 46.8032 19.787C46.4747 20.0115 46.249 20.3572 46.1755 20.7482L45.8984 22.2224L44.4242 21.9454C44.0332 21.8719 43.6291 21.9567 43.3007 22.1812C42.9722 22.4057 42.7465 22.7515 42.673 23.1425C42.5995 23.5335 42.6843 23.9376 42.9088 24.266C43.1334 24.5945 43.4791 24.8203 43.8701 24.8937L45.3443 25.1708L45.0672 26.645C44.9938 27.036 45.0786 27.4401 45.3031 27.7685C45.5276 28.097 45.8734 28.3228 46.2644 28.3962C46.6554 28.4697 47.0595 28.3849 47.3879 28.1604C47.7164 27.9359 47.9421 27.5901 48.0156 27.1991L48.2927 25.7249L49.7669 26.002C50.1579 26.0754 50.562 25.9906 50.8904 25.7661C51.2189 25.5416 51.4446 25.1958 51.5181 24.8048C51.5916 24.4138 51.5068 24.0097 51.2823 23.6813C51.0577 23.3528 50.712 23.1271 50.321 23.0536Z" fill="#659BF2"/>
</g>
<defs>
<clipPath id="clip0_396_44">
<rect width="48" height="48" fill="white" transform="translate(8.86582) rotate(10.6439)"/>
</clipPath>
</defs>
</svg>
