<svg width="24" height="24" viewBox="0 0 24 24" fill="none" xmlns="http://www.w3.org/2000/svg">
<path d="M19.12 10C18.0858 11.8465 16.6405 13.4302 14.896 14.6285C13.1515 15.8268 11.1546 16.6074 9.05999 16.91H8.60999C7.76348 16.9083 6.94919 16.5853 6.33174 16.0062C5.7143 15.4271 5.33977 14.6352 5.28388 13.7905C5.22799 12.9459 5.49492 12.1115 6.03068 11.4561C6.56645 10.8007 7.33108 10.3732 8.16999 10.26C11.08 9.87 12.86 7.26 13.83 5.2C13.8688 5.10677 13.926 5.02233 13.9982 4.95176C14.0705 4.88118 14.1562 4.82591 14.2503 4.78927C14.3444 4.75263 14.4449 4.73537 14.5459 4.73853C14.6468 4.74168 14.746 4.76518 14.8377 4.80763C14.9293 4.85008 15.0114 4.91059 15.0791 4.98554C15.1468 5.06049 15.1986 5.14833 15.2315 5.2438C15.2644 5.33927 15.2777 5.44041 15.2705 5.54114C15.2634 5.64187 15.236 5.74012 15.19 5.83C14.06 8.29 12 11.3 8.36999 11.78C7.90692 11.8601 7.49205 12.1143 7.21046 12.4906C6.92888 12.8668 6.80193 13.3366 6.85565 13.8034C6.90937 14.2703 7.13969 14.6989 7.49937 15.0014C7.85905 15.3038 8.32083 15.4572 8.78999 15.43C17.44 14.27 20.16 4.88 21 0.75H5.04999C4.67267 1.03624 4.33623 1.37268 4.04999 1.75C3.15999 3.25 4.62999 5.24 6.55999 5.95C5.22426 6.66836 4.12026 7.75162 3.37668 9.07347C2.63311 10.3953 2.2806 11.9013 2.36026 13.4159C2.43992 14.9304 2.94846 16.3911 3.82659 17.6277C4.70473 18.8642 5.91628 19.8257 7.31999 20.4V23.24H21.45C21.45 17.24 19.45 16.62 19.03 12.67C18.9543 11.7796 18.9845 10.8833 19.12 10Z" fill="#CE0606"/>
</svg>
