<svg width="24" height="24" viewBox="0 0 24 24" fill="none" xmlns="http://www.w3.org/2000/svg">
<path d="M22.2806 8.09437L16.6556 2.46937C16.586 2.39964 16.5033 2.34432 16.4122 2.30657C16.3212 2.26883 16.2236 2.2494 16.125 2.2494C16.0264 2.2494 15.9289 2.26883 15.8378 2.30657C15.7468 2.34432 15.664 2.39964 15.5944 2.46937L3.47907 14.5847C2.69188 15.3719 2.24963 16.4395 2.24963 17.5528C2.24963 18.6661 2.69188 19.7337 3.47907 20.5209C4.26627 21.3081 5.33393 21.7504 6.4472 21.7504C7.56046 21.7504 8.62813 21.3081 9.41532 20.5209L19.905 10.0312L21.9872 9.3375C22.1086 9.29713 22.2176 9.22639 22.3039 9.13201C22.3902 9.03762 22.451 8.92273 22.4804 8.79825C22.5098 8.67377 22.5069 8.54384 22.4719 8.4208C22.437 8.29777 22.3711 8.18572 22.2806 8.09531V8.09437ZM19.2628 8.66343C19.1523 8.70014 19.0518 8.76209 18.9694 8.84437L15.2597 12.5541C14.4656 12.8259 13.2206 12.9291 11.5969 12.0853C10.6031 11.5659 9.70501 11.3353 8.91938 11.2669L16.125 4.06031L20.3616 8.29687L19.2628 8.66343Z" fill="#CE0606"/>
</svg>
