<svg width="44" height="44" viewBox="0 0 44 44" fill="none" xmlns="http://www.w3.org/2000/svg">
<rect x="0.25" y="0.25" width="43.5" height="43.5" rx="7.75" fill="white" fill-opacity="0.3"/>
<rect x="0.25" y="0.25" width="43.5" height="43.5" rx="7.75" stroke="#C9E265" stroke-width="0.5"/>
<path d="M32.2806 18.0945L26.6556 12.4695C26.586 12.3997 26.5033 12.3444 26.4122 12.3067C26.3212 12.2689 26.2236 12.2495 26.125 12.2495C26.0264 12.2495 25.9289 12.2689 25.8378 12.3067C25.7468 12.3444 25.664 12.3997 25.5944 12.4695L13.4791 24.5848C12.6919 25.372 12.2496 26.4397 12.2496 27.5529C12.2496 28.6662 12.6919 29.7338 13.4791 30.521C14.2663 31.3082 15.3339 31.7505 16.4472 31.7505C17.5605 31.7505 18.6281 31.3082 19.4153 30.521L29.905 20.0314L31.9872 19.3376C32.1086 19.2972 32.2176 19.2265 32.3039 19.1321C32.3902 19.0377 32.451 18.9228 32.4804 18.7984C32.5098 18.6739 32.5069 18.5439 32.4719 18.4209C32.437 18.2979 32.3711 18.1858 32.2806 18.0954V18.0945ZM29.2628 18.6635C29.1523 18.7002 29.0518 18.7622 28.9694 18.8445L25.2597 22.5542C24.4656 22.826 23.2206 22.9292 21.5969 22.0854C20.6031 21.566 19.705 21.3354 18.9194 21.267L26.125 14.0604L30.3616 18.297L29.2628 18.6635Z" fill="#C9E265"/>
</svg>
