<svg width="44" height="44" viewBox="0 0 44 44" fill="none" xmlns="http://www.w3.org/2000/svg">
<rect x="0.25" y="0.25" width="43.5" height="43.5" rx="7.75" fill="#FFD2D2"/>
<rect x="0.25" y="0.25" width="43.5" height="43.5" rx="7.75" stroke="#FF6932" stroke-width="0.5"/>
<path d="M32.5 21.25H30.9681C30.8137 19.3862 30.0797 17.6176 28.8691 16.1922L30.0306 15.0306C30.1714 14.8899 30.2504 14.699 30.2504 14.5C30.2504 14.301 30.1714 14.1101 30.0306 13.9694C29.8899 13.8286 29.699 13.7496 29.5 13.7496C29.301 13.7496 29.1101 13.8286 28.9694 13.9694L27.8125 15.1309C26.3858 13.9194 24.6154 13.1853 22.75 13.0319V11.5C22.75 11.3011 22.671 11.1103 22.5303 10.9697C22.3897 10.829 22.1989 10.75 22 10.75C21.8011 10.75 21.6103 10.829 21.4697 10.9697C21.329 11.1103 21.25 11.3011 21.25 11.5V13.0319C19.3862 13.1863 17.6176 13.9203 16.1922 15.1309L15.0306 13.9694C14.8899 13.8286 14.699 13.7496 14.5 13.7496C14.301 13.7496 14.1101 13.8286 13.9694 13.9694C13.8286 14.1101 13.7496 14.301 13.7496 14.5C13.7496 14.699 13.8286 14.8899 13.9694 15.0306L15.1309 16.1922C13.9194 17.6189 13.1853 19.3893 13.0319 21.2547H11.5C11.3011 21.2547 11.1103 21.3337 10.9697 21.4744C10.829 21.615 10.75 21.8058 10.75 22.0047C10.75 22.2036 10.829 22.3944 10.9697 22.535C11.1103 22.6757 11.3011 22.7547 11.5 22.7547H13.0319C13.1863 24.6184 13.9203 26.3871 15.1309 27.8125L13.9694 28.9694C13.8286 29.1101 13.7496 29.301 13.7496 29.5C13.7496 29.699 13.8286 29.8899 13.9694 30.0306C14.1101 30.1714 14.301 30.2504 14.5 30.2504C14.699 30.2504 14.8899 30.1714 15.0306 30.0306L16.1922 28.8691C17.6189 30.0806 19.3893 30.8147 21.2547 30.9681V32.5C21.2547 32.6989 21.3337 32.8897 21.4744 33.0303C21.615 33.171 21.8058 33.25 22.0047 33.25C22.2036 33.25 22.3944 33.171 22.535 33.0303C22.6757 32.8897 22.7547 32.6989 22.7547 32.5V30.9681C24.6184 30.8137 26.3871 30.0797 27.8125 28.8691L28.9741 30.0306C29.1148 30.1714 29.3057 30.2504 29.5047 30.2504C29.7037 30.2504 29.8946 30.1714 30.0353 30.0306C30.176 29.8899 30.2551 29.699 30.2551 29.5C30.2551 29.301 30.176 29.1101 30.0353 28.9694L28.8691 27.8125C30.0806 26.3858 30.8147 24.6154 30.9681 22.75H32.5C32.6989 22.75 32.8897 22.671 33.0303 22.5303C33.171 22.3897 33.25 22.1989 33.25 22C33.25 21.8011 33.171 21.6103 33.0303 21.4697C32.8897 21.329 32.6989 21.25 32.5 21.25ZM17.5 20.125C17.5 19.6058 17.654 19.0983 17.9424 18.6666C18.2308 18.2349 18.6408 17.8985 19.1205 17.6998C19.6001 17.5011 20.1279 17.4492 20.6371 17.5504C21.1463 17.6517 21.614 17.9017 21.9812 18.2688C22.3483 18.636 22.5983 19.1037 22.6996 19.6129C22.8008 20.1221 22.7489 20.6499 22.5502 21.1295C22.3515 21.6092 22.0151 22.0192 21.5834 22.3076C21.1517 22.596 20.6442 22.75 20.125 22.75C19.4288 22.75 18.7611 22.4734 18.2688 21.9812C17.7766 21.4889 17.5 20.8212 17.5 20.125ZM22 28C21.7033 28 21.4133 27.912 21.1666 27.7472C20.92 27.5824 20.7277 27.3481 20.6142 27.074C20.5006 26.7999 20.4709 26.4983 20.5288 26.2074C20.5867 25.9164 20.7296 25.6491 20.9393 25.4393C21.1491 25.2296 21.4164 25.0867 21.7074 25.0288C21.9983 24.9709 22.2999 25.0006 22.574 25.1142C22.8481 25.2277 23.0824 25.42 23.2472 25.6666C23.412 25.9133 23.5 26.2033 23.5 26.5C23.5 26.8978 23.342 27.2794 23.0607 27.5607C22.7794 27.842 22.3978 28 22 28ZM26.5 23.5C26.2033 23.5 25.9133 23.412 25.6666 23.2472C25.42 23.0824 25.2277 22.8481 25.1142 22.574C25.0006 22.2999 24.9709 21.9983 25.0288 21.7074C25.0867 21.4164 25.2296 21.1491 25.4393 20.9393C25.6491 20.7296 25.9164 20.5867 26.2074 20.5288C26.4983 20.4709 26.7999 20.5006 27.074 20.6142C27.3481 20.7277 27.5824 20.92 27.7472 21.1666C27.912 21.4133 28 21.7033 28 22C28 22.3978 27.842 22.7794 27.5607 23.0607C27.2794 23.342 26.8978 23.5 26.5 23.5Z" fill="#FD4646"/>
</svg>
